<mxfile host="app.diagrams.net" modified="2022-08-29T13:53:04.876Z" agent="5.0 (X11; Linux x86_64) AppleWebKit/537.36 (KHTML, like Gecko) Chrome/104.0.0.0 Safari/537.36" etag="XvnKg5574CATwZYwpQ9g" version="20.2.5" type="github">
  <diagram id="i1q3ZSDcJy0kWlIKPwqC" name="PÃ¡gina-1">
    <mxGraphModel dx="1278" dy="578" grid="1" gridSize="10" guides="1" tooltips="1" connect="1" arrows="1" fold="1" page="1" pageScale="1" pageWidth="827" pageHeight="1169" math="0" shadow="0">
      <root>
        <mxCell id="0" />
        <mxCell id="1" parent="0" />
      </root>
    </mxGraphModel>
  </diagram>
</mxfile>
